<mxfile host="Electron" agent="Mozilla/5.0 (X11; Linux x86_64) AppleWebKit/537.36 (KHTML, like Gecko) draw.io/24.7.17 Chrome/128.0.6613.36 Electron/32.0.1 Safari/537.36" version="24.7.17">
  <diagram name="Page-1" id="-cOzaXy1qFuknH717Rdr">
    <mxGraphModel dx="2920" dy="1343" grid="1" gridSize="10" guides="1" tooltips="1" connect="1" arrows="1" fold="1" page="1" pageScale="1" pageWidth="850" pageHeight="1100" math="0" shadow="0">
      <root>
        <mxCell id="0" />
        <mxCell id="1" parent="0" />
        <mxCell id="QVx0htQHTLcNhm2wryLR-1" value="wb_i2c" style="rounded=1;whiteSpace=wrap;html=1;fontSize=20;fillColor=#dae8fc;strokeWidth=1;fontStyle=0;strokeColor=#000000;" parent="1" vertex="1">
          <mxGeometry x="-0.19999999999999996" y="670" width="120" height="60" as="geometry" />
        </mxCell>
        <mxCell id="QVx0htQHTLcNhm2wryLR-3" value="&lt;font style=&quot;font-size: 20px;&quot;&gt;&lt;b style=&quot;font-size: 20px;&quot;&gt;VS0&lt;/b&gt;&lt;/font&gt;" style="rounded=1;whiteSpace=wrap;html=1;strokeColor=default;fillColor=#FFFF88;align=center;verticalAlign=top;strokeWidth=3;fontSize=20;" parent="1" vertex="1">
          <mxGeometry x="-30" y="1160" width="180" height="120" as="geometry" />
        </mxCell>
        <mxCell id="QVx0htQHTLcNhm2wryLR-4" value="" style="rounded=1;whiteSpace=wrap;html=1;fontSize=20;fillColor=#DAE8FC;" parent="1" vertex="1">
          <mxGeometry x="-371" y="770" width="170" height="90" as="geometry" />
        </mxCell>
        <mxCell id="QVx0htQHTLcNhm2wryLR-5" value="" style="endArrow=classic;html=1;rounded=0;fontSize=20;" parent="1" source="QVx0htQHTLcNhm2wryLR-6" target="QVx0htQHTLcNhm2wryLR-98" edge="1">
          <mxGeometry width="50" height="50" relative="1" as="geometry">
            <mxPoint x="-280" y="820" as="sourcePoint" />
            <mxPoint x="-230" y="810" as="targetPoint" />
          </mxGeometry>
        </mxCell>
        <mxCell id="QVx0htQHTLcNhm2wryLR-6" value="YM2149" style="rounded=1;whiteSpace=wrap;html=1;fontSize=20;fillColor=#DAE8FC;" parent="1" vertex="1">
          <mxGeometry x="-346" y="790" width="130" height="60" as="geometry" />
        </mxCell>
        <mxCell id="QVx0htQHTLcNhm2wryLR-8" value="USB HID" style="rounded=1;whiteSpace=wrap;html=1;fontSize=20;fillColor=#dae8fc;strokeColor=#000000;strokeWidth=1;" parent="1" vertex="1">
          <mxGeometry x="-311" y="1170" width="111" height="50" as="geometry" />
        </mxCell>
        <mxCell id="QVx0htQHTLcNhm2wryLR-9" value="" style="rounded=0;whiteSpace=wrap;html=1;fontSize=20;fillColor=#000000;strokeColor=#000000;" parent="1" vertex="1">
          <mxGeometry x="-211" y="1195" width="10" height="10" as="geometry" />
        </mxCell>
        <mxCell id="QVx0htQHTLcNhm2wryLR-10" value="wbxbar Wishbone&lt;br&gt;Crossbar" style="rounded=0;whiteSpace=wrap;html=1;fontSize=20;fontStyle=0;fillColor=#dae8fc;strokeColor=#6c8ebf;strokeWidth=1;" parent="1" vertex="1">
          <mxGeometry x="-0.1999999999999993" y="1060" width="510.2" height="80" as="geometry" />
        </mxCell>
        <mxCell id="QVx0htQHTLcNhm2wryLR-11" value="128K&lt;br&gt;DPRAM&lt;br&gt;CMEM" style="rounded=1;whiteSpace=wrap;html=1;fontSize=20;fillColor=#dae8fc;strokeWidth=2;strokeColor=#6c8ebf;" parent="1" vertex="1">
          <mxGeometry x="304.8" y="1180" width="120" height="100" as="geometry" />
        </mxCell>
        <mxCell id="QVx0htQHTLcNhm2wryLR-12" value="128K&lt;br&gt;DPRAM&lt;br&gt;DMEM" style="rounded=1;whiteSpace=wrap;html=1;fontSize=20;fillColor=#dae8fc;strokeWidth=2;strokeColor=#6c8ebf;" parent="1" vertex="1">
          <mxGeometry x="393" y="1300" width="120" height="100" as="geometry" />
        </mxCell>
        <mxCell id="QVx0htQHTLcNhm2wryLR-13" value="Ibex&lt;br style=&quot;font-size: 20px&quot;&gt;RV32IMCB&lt;br style=&quot;font-size: 20px&quot;&gt;" style="rounded=1;whiteSpace=wrap;html=1;fontSize=20;fillColor=#dae8fc;strokeColor=#6c8ebf;strokeWidth=1;fontStyle=1" parent="1" vertex="1">
          <mxGeometry x="-0.1999999999999993" y="940" width="120" height="80" as="geometry" />
        </mxCell>
        <mxCell id="QVx0htQHTLcNhm2wryLR-14" value="riscv-dbg&lt;br style=&quot;font-size: 20px;&quot;&gt;JTAG DTM&lt;br style=&quot;font-size: 20px;&quot;&gt;" style="rounded=1;whiteSpace=wrap;html=1;fontSize=20;fillColor=#DAE8FC;strokeColor=default;" parent="1" vertex="1">
          <mxGeometry x="66.8" y="780" width="140.2" height="80" as="geometry" />
        </mxCell>
        <mxCell id="QVx0htQHTLcNhm2wryLR-15" value="LiteDRAM MEMC" style="rounded=1;whiteSpace=wrap;html=1;fontSize=20;fillColor=#DAE8FC;strokeColor=default;" parent="1" vertex="1">
          <mxGeometry x="159.8" y="1180" width="120" height="80" as="geometry" />
        </mxCell>
        <mxCell id="QVx0htQHTLcNhm2wryLR-16" value="PicoRV&lt;br&gt;DMA" style="rounded=1;whiteSpace=wrap;html=1;fontSize=20;fillColor=#dae8fc;strokeColor=#6c8ebf;strokeWidth=1;fontStyle=1" parent="1" vertex="1">
          <mxGeometry x="160" y="940" width="120" height="80" as="geometry" />
        </mxCell>
        <mxCell id="QVx0htQHTLcNhm2wryLR-17" value="VERA Graphics&lt;br&gt;128KB VRAM&lt;br&gt;" style="rounded=1;whiteSpace=wrap;html=1;fontSize=20;fillColor=#dae8fc;strokeColor=#6c8ebf;fontStyle=1;strokeWidth=1;" parent="1" vertex="1">
          <mxGeometry x="304.8" y="890" width="120" height="120" as="geometry" />
        </mxCell>
        <mxCell id="QVx0htQHTLcNhm2wryLR-19" value="" style="rounded=0;whiteSpace=wrap;html=1;fontSize=20;fillColor=#000000;" parent="1" vertex="1">
          <mxGeometry x="35.8" y="1060" width="10" height="10" as="geometry" />
        </mxCell>
        <mxCell id="QVx0htQHTLcNhm2wryLR-20" value="" style="endArrow=classic;html=1;rounded=0;fontSize=20;strokeWidth=1;" parent="1" source="QVx0htQHTLcNhm2wryLR-25" edge="1">
          <mxGeometry width="50" height="50" relative="1" as="geometry">
            <mxPoint x="40.8" y="1030" as="sourcePoint" />
            <mxPoint x="40.8" y="1060" as="targetPoint" />
          </mxGeometry>
        </mxCell>
        <mxCell id="QVx0htQHTLcNhm2wryLR-21" value="" style="endArrow=classic;html=1;rounded=0;fontSize=20;strokeWidth=1;" parent="1" source="QVx0htQHTLcNhm2wryLR-26" target="QVx0htQHTLcNhm2wryLR-22" edge="1">
          <mxGeometry width="50" height="50" relative="1" as="geometry">
            <mxPoint x="80.8" y="1030" as="sourcePoint" />
            <mxPoint x="-185.2" y="1095" as="targetPoint" />
          </mxGeometry>
        </mxCell>
        <mxCell id="QVx0htQHTLcNhm2wryLR-22" value="" style="rounded=0;whiteSpace=wrap;html=1;fontSize=20;fillColor=#000000;" parent="1" vertex="1">
          <mxGeometry x="75.8" y="1060" width="10" height="10" as="geometry" />
        </mxCell>
        <mxCell id="QVx0htQHTLcNhm2wryLR-25" value="" style="rounded=0;whiteSpace=wrap;html=1;fontSize=20;fillColor=#000000;" parent="1" vertex="1">
          <mxGeometry x="35.8" y="1010" width="10" height="10" as="geometry" />
        </mxCell>
        <mxCell id="QVx0htQHTLcNhm2wryLR-26" value="" style="rounded=0;whiteSpace=wrap;html=1;fontSize=20;fillColor=#000000;" parent="1" vertex="1">
          <mxGeometry x="75.8" y="1010" width="10" height="10" as="geometry" />
        </mxCell>
        <mxCell id="QVx0htQHTLcNhm2wryLR-27" value="" style="rounded=0;whiteSpace=wrap;html=1;fontSize=20;fillColor=#000000;" parent="1" vertex="1">
          <mxGeometry x="359.8" y="1060" width="10" height="10" as="geometry" />
        </mxCell>
        <mxCell id="QVx0htQHTLcNhm2wryLR-28" value="" style="rounded=0;whiteSpace=wrap;html=1;fontSize=20;fillColor=#000000;" parent="1" vertex="1">
          <mxGeometry x="359.8" y="1000" width="10" height="10" as="geometry" />
        </mxCell>
        <mxCell id="QVx0htQHTLcNhm2wryLR-29" value="" style="endArrow=classic;html=1;rounded=0;fontSize=20;" parent="1" source="QVx0htQHTLcNhm2wryLR-27" target="QVx0htQHTLcNhm2wryLR-28" edge="1">
          <mxGeometry width="50" height="50" relative="1" as="geometry">
            <mxPoint x="114.80000000000001" y="1270" as="sourcePoint" />
            <mxPoint x="164.8" y="1220" as="targetPoint" />
          </mxGeometry>
        </mxCell>
        <mxCell id="QVx0htQHTLcNhm2wryLR-30" value="" style="rounded=0;whiteSpace=wrap;html=1;fontSize=20;fillColor=#000000;" parent="1" vertex="1">
          <mxGeometry x="214.99999999999994" y="1010" width="10" height="10" as="geometry" />
        </mxCell>
        <mxCell id="QVx0htQHTLcNhm2wryLR-31" value="" style="rounded=0;whiteSpace=wrap;html=1;fontSize=20;fillColor=#000000;" parent="1" vertex="1">
          <mxGeometry x="214.79999999999995" y="1060" width="10" height="10" as="geometry" />
        </mxCell>
        <mxCell id="QVx0htQHTLcNhm2wryLR-32" value="" style="endArrow=classic;html=1;rounded=0;fontSize=20;strokeWidth=1;" parent="1" source="QVx0htQHTLcNhm2wryLR-30" target="QVx0htQHTLcNhm2wryLR-31" edge="1">
          <mxGeometry width="50" height="50" relative="1" as="geometry">
            <mxPoint x="129.8" y="1170" as="sourcePoint" />
            <mxPoint x="179.8" y="1120" as="targetPoint" />
          </mxGeometry>
        </mxCell>
        <mxCell id="QVx0htQHTLcNhm2wryLR-33" value="" style="rounded=0;whiteSpace=wrap;html=1;fontSize=20;fillColor=#000000;" parent="1" vertex="1">
          <mxGeometry x="35.8" y="1160" width="10" height="10" as="geometry" />
        </mxCell>
        <mxCell id="QVx0htQHTLcNhm2wryLR-34" value="" style="rounded=0;whiteSpace=wrap;html=1;fontSize=20;fillColor=#000000;" parent="1" vertex="1">
          <mxGeometry x="35.8" y="1130" width="10" height="10" as="geometry" />
        </mxCell>
        <mxCell id="QVx0htQHTLcNhm2wryLR-35" value="" style="endArrow=classic;html=1;rounded=0;fontSize=20;" parent="1" source="QVx0htQHTLcNhm2wryLR-34" target="QVx0htQHTLcNhm2wryLR-33" edge="1">
          <mxGeometry width="50" height="50" relative="1" as="geometry">
            <mxPoint x="139.8" y="1180" as="sourcePoint" />
            <mxPoint x="189.8" y="1130" as="targetPoint" />
          </mxGeometry>
        </mxCell>
        <mxCell id="QVx0htQHTLcNhm2wryLR-36" value="" style="rounded=0;whiteSpace=wrap;html=1;fontSize=20;fillColor=#000000;" parent="1" vertex="1">
          <mxGeometry x="75.8" y="1130" width="10" height="10" as="geometry" />
        </mxCell>
        <mxCell id="QVx0htQHTLcNhm2wryLR-37" value="" style="rounded=0;whiteSpace=wrap;html=1;fontSize=20;fillColor=#000000;" parent="1" vertex="1">
          <mxGeometry x="74.89999999999999" y="1160" width="10" height="10" as="geometry" />
        </mxCell>
        <mxCell id="QVx0htQHTLcNhm2wryLR-38" value="" style="endArrow=classic;html=1;rounded=0;fontSize=20;" parent="1" source="QVx0htQHTLcNhm2wryLR-37" target="QVx0htQHTLcNhm2wryLR-36" edge="1">
          <mxGeometry width="50" height="50" relative="1" as="geometry">
            <mxPoint x="139.8" y="1180" as="sourcePoint" />
            <mxPoint x="189.8" y="1130" as="targetPoint" />
          </mxGeometry>
        </mxCell>
        <mxCell id="QVx0htQHTLcNhm2wryLR-39" value="" style="rounded=0;whiteSpace=wrap;html=1;fontSize=20;fillColor=#000000;" parent="1" vertex="1">
          <mxGeometry x="214.8" y="1180" width="10" height="10" as="geometry" />
        </mxCell>
        <mxCell id="QVx0htQHTLcNhm2wryLR-40" value="" style="rounded=0;whiteSpace=wrap;html=1;fontSize=20;fillColor=#000000;" parent="1" vertex="1">
          <mxGeometry x="214.8" y="1130" width="10" height="10" as="geometry" />
        </mxCell>
        <mxCell id="QVx0htQHTLcNhm2wryLR-41" value="" style="endArrow=classic;html=1;rounded=0;fontSize=20;strokeWidth=1;" parent="1" source="QVx0htQHTLcNhm2wryLR-40" target="QVx0htQHTLcNhm2wryLR-39" edge="1">
          <mxGeometry width="50" height="50" relative="1" as="geometry">
            <mxPoint x="139.8" y="1180" as="sourcePoint" />
            <mxPoint x="189.8" y="1130" as="targetPoint" />
          </mxGeometry>
        </mxCell>
        <mxCell id="QVx0htQHTLcNhm2wryLR-42" value="" style="rounded=0;whiteSpace=wrap;html=1;fontSize=20;fillColor=#000000;" parent="1" vertex="1">
          <mxGeometry x="336.8" y="1180" width="10" height="10" as="geometry" />
        </mxCell>
        <mxCell id="QVx0htQHTLcNhm2wryLR-43" value="" style="rounded=0;whiteSpace=wrap;html=1;fontSize=20;fillColor=#000000;" parent="1" vertex="1">
          <mxGeometry x="336.8" y="1130" width="10" height="10" as="geometry" />
        </mxCell>
        <mxCell id="QVx0htQHTLcNhm2wryLR-44" value="" style="endArrow=classic;html=1;rounded=0;fontSize=20;strokeWidth=1;" parent="1" source="QVx0htQHTLcNhm2wryLR-43" target="QVx0htQHTLcNhm2wryLR-42" edge="1">
          <mxGeometry width="50" height="50" relative="1" as="geometry">
            <mxPoint x="124.80000000000001" y="1180" as="sourcePoint" />
            <mxPoint x="174.8" y="1130" as="targetPoint" />
          </mxGeometry>
        </mxCell>
        <mxCell id="QVx0htQHTLcNhm2wryLR-45" value="" style="rounded=0;whiteSpace=wrap;html=1;fontSize=20;fillColor=#000000;" parent="1" vertex="1">
          <mxGeometry x="377.8" y="1180" width="10" height="10" as="geometry" />
        </mxCell>
        <mxCell id="QVx0htQHTLcNhm2wryLR-46" value="" style="rounded=0;whiteSpace=wrap;html=1;fontSize=20;fillColor=#000000;" parent="1" vertex="1">
          <mxGeometry x="377.8" y="1130" width="10" height="10" as="geometry" />
        </mxCell>
        <mxCell id="QVx0htQHTLcNhm2wryLR-47" value="" style="endArrow=classic;html=1;rounded=0;fontSize=20;strokeWidth=1;" parent="1" source="QVx0htQHTLcNhm2wryLR-46" target="QVx0htQHTLcNhm2wryLR-45" edge="1">
          <mxGeometry width="50" height="50" relative="1" as="geometry">
            <mxPoint x="124.80000000000001" y="1180" as="sourcePoint" />
            <mxPoint x="174.8" y="1130" as="targetPoint" />
          </mxGeometry>
        </mxCell>
        <mxCell id="QVx0htQHTLcNhm2wryLR-48" value="" style="rounded=0;whiteSpace=wrap;html=1;fontSize=20;fillColor=#000000;" parent="1" vertex="1">
          <mxGeometry x="434" y="1300" width="10" height="10" as="geometry" />
        </mxCell>
        <mxCell id="QVx0htQHTLcNhm2wryLR-49" value="" style="rounded=0;whiteSpace=wrap;html=1;fontSize=20;fillColor=#000000;" parent="1" vertex="1">
          <mxGeometry x="434" y="1130" width="10" height="10" as="geometry" />
        </mxCell>
        <mxCell id="QVx0htQHTLcNhm2wryLR-50" value="" style="endArrow=classic;html=1;rounded=0;fontSize=20;strokeWidth=1;" parent="1" source="QVx0htQHTLcNhm2wryLR-49" target="QVx0htQHTLcNhm2wryLR-48" edge="1">
          <mxGeometry width="50" height="50" relative="1" as="geometry">
            <mxPoint x="124.80000000000001" y="1180" as="sourcePoint" />
            <mxPoint x="174.8" y="1130" as="targetPoint" />
          </mxGeometry>
        </mxCell>
        <mxCell id="QVx0htQHTLcNhm2wryLR-51" value="" style="rounded=0;whiteSpace=wrap;html=1;fontSize=20;fillColor=#000000;" parent="1" vertex="1">
          <mxGeometry x="469.9999999999999" y="1300" width="10" height="10" as="geometry" />
        </mxCell>
        <mxCell id="QVx0htQHTLcNhm2wryLR-52" value="" style="rounded=0;whiteSpace=wrap;html=1;fontSize=20;fillColor=#000000;" parent="1" vertex="1">
          <mxGeometry x="469.9999999999999" y="1130" width="10" height="10" as="geometry" />
        </mxCell>
        <mxCell id="QVx0htQHTLcNhm2wryLR-53" value="" style="endArrow=classic;html=1;rounded=0;fontSize=20;strokeWidth=1;" parent="1" source="QVx0htQHTLcNhm2wryLR-52" target="QVx0htQHTLcNhm2wryLR-51" edge="1">
          <mxGeometry width="50" height="50" relative="1" as="geometry">
            <mxPoint x="124.80000000000001" y="1180" as="sourcePoint" />
            <mxPoint x="174.8" y="1130" as="targetPoint" />
          </mxGeometry>
        </mxCell>
        <mxCell id="QVx0htQHTLcNhm2wryLR-54" value="&lt;span&gt;wbxbar&lt;br&gt;Wishbone&lt;br&gt;Shared&lt;br&gt;Bus&lt;/span&gt;" style="rounded=0;whiteSpace=wrap;html=1;fontSize=20;fillColor=#dae8fc;strokeWidth=1;strokeColor=#6c8ebf;fontStyle=0" parent="1" vertex="1">
          <mxGeometry x="-160" y="670" width="120" height="790" as="geometry" />
        </mxCell>
        <mxCell id="QVx0htQHTLcNhm2wryLR-55" value="" style="rounded=0;whiteSpace=wrap;html=1;fontSize=20;fillColor=#000000;" parent="1" vertex="1">
          <mxGeometry x="-50" y="1095" width="10" height="10" as="geometry" />
        </mxCell>
        <mxCell id="QVx0htQHTLcNhm2wryLR-56" value="" style="rounded=0;whiteSpace=wrap;html=1;fontSize=20;fillColor=#000000;" parent="1" vertex="1">
          <mxGeometry x="-0.1999999999999993" y="1095" width="10" height="10" as="geometry" />
        </mxCell>
        <mxCell id="QVx0htQHTLcNhm2wryLR-57" value="" style="endArrow=classic;html=1;rounded=0;fontSize=20;edgeStyle=orthogonalEdgeStyle;strokeWidth=1;" parent="1" source="QVx0htQHTLcNhm2wryLR-56" target="QVx0htQHTLcNhm2wryLR-55" edge="1">
          <mxGeometry width="50" height="50" relative="1" as="geometry">
            <mxPoint x="140" y="1300" as="sourcePoint" />
            <mxPoint x="190" y="1250" as="targetPoint" />
          </mxGeometry>
        </mxCell>
        <mxCell id="QVx0htQHTLcNhm2wryLR-58" value="" style="rounded=0;whiteSpace=wrap;html=1;fontSize=20;fillColor=#000000;" parent="1" vertex="1">
          <mxGeometry x="68.00000000000001" y="815" width="10" height="10" as="geometry" />
        </mxCell>
        <mxCell id="QVx0htQHTLcNhm2wryLR-59" value="" style="rounded=0;whiteSpace=wrap;html=1;fontSize=20;fillColor=#000000;" parent="1" vertex="1">
          <mxGeometry x="-50" y="815" width="10" height="10" as="geometry" />
        </mxCell>
        <mxCell id="QVx0htQHTLcNhm2wryLR-60" value="" style="endArrow=classic;html=1;rounded=0;fontSize=20;edgeStyle=orthogonalEdgeStyle;" parent="1" source="QVx0htQHTLcNhm2wryLR-59" target="QVx0htQHTLcNhm2wryLR-58" edge="1">
          <mxGeometry width="50" height="50" relative="1" as="geometry">
            <mxPoint x="140" y="1240" as="sourcePoint" />
            <mxPoint x="190" y="1190" as="targetPoint" />
          </mxGeometry>
        </mxCell>
        <mxCell id="QVx0htQHTLcNhm2wryLR-61" value="" style="rounded=0;whiteSpace=wrap;html=1;fontSize=20;fillColor=#000000;" parent="1" vertex="1">
          <mxGeometry x="214.99999999999994" y="940" width="10" height="10" as="geometry" />
        </mxCell>
        <mxCell id="QVx0htQHTLcNhm2wryLR-62" value="" style="rounded=0;whiteSpace=wrap;html=1;fontSize=20;fillColor=#000000;" parent="1" vertex="1">
          <mxGeometry x="-50" y="910" width="10" height="10" as="geometry" />
        </mxCell>
        <mxCell id="QVx0htQHTLcNhm2wryLR-63" value="" style="rounded=0;whiteSpace=wrap;html=1;fontSize=20;fillColor=#000000;" parent="1" vertex="1">
          <mxGeometry x="214.8" y="1250" width="10" height="10" as="geometry" />
        </mxCell>
        <mxCell id="QVx0htQHTLcNhm2wryLR-64" value="" style="rounded=0;whiteSpace=wrap;html=1;fontSize=20;fillColor=#000000;" parent="1" vertex="1">
          <mxGeometry x="-50" y="1290" width="10" height="10" as="geometry" />
        </mxCell>
        <mxCell id="QVx0htQHTLcNhm2wryLR-65" value="" style="endArrow=classic;html=1;rounded=0;fontSize=20;edgeStyle=orthogonalEdgeStyle;" parent="1" source="QVx0htQHTLcNhm2wryLR-64" target="QVx0htQHTLcNhm2wryLR-63" edge="1">
          <mxGeometry width="50" height="50" relative="1" as="geometry">
            <mxPoint x="140" y="1300" as="sourcePoint" />
            <mxPoint x="190" y="1250" as="targetPoint" />
          </mxGeometry>
        </mxCell>
        <mxCell id="QVx0htQHTLcNhm2wryLR-66" value="2 x YM2149/&lt;br&gt;JT49 Sound" style="rounded=1;whiteSpace=wrap;html=1;fontSize=20;fillColor=#DAE8FC;" parent="1" vertex="1">
          <mxGeometry x="-360" y="780" width="130" height="60" as="geometry" />
        </mxCell>
        <mxCell id="QVx0htQHTLcNhm2wryLR-67" value="" style="rounded=0;whiteSpace=wrap;html=1;fontSize=20;fillColor=#000000;" parent="1" vertex="1">
          <mxGeometry x="-211" y="815" width="10" height="10" as="geometry" />
        </mxCell>
        <mxCell id="QVx0htQHTLcNhm2wryLR-68" value="" style="rounded=0;whiteSpace=wrap;html=1;fontSize=20;fillColor=#000000;" parent="1" vertex="1">
          <mxGeometry x="-160" y="815" width="10" height="10" as="geometry" />
        </mxCell>
        <mxCell id="QVx0htQHTLcNhm2wryLR-69" value="" style="endArrow=classic;html=1;rounded=0;fontSize=20;" parent="1" source="QVx0htQHTLcNhm2wryLR-68" target="QVx0htQHTLcNhm2wryLR-67" edge="1">
          <mxGeometry width="50" height="50" relative="1" as="geometry">
            <mxPoint x="140" y="1250" as="sourcePoint" />
            <mxPoint x="190" y="1200" as="targetPoint" />
          </mxGeometry>
        </mxCell>
        <mxCell id="QVx0htQHTLcNhm2wryLR-70" value="sdspi" style="rounded=1;whiteSpace=wrap;html=1;fontSize=20;fillColor=#dae8fc;strokeColor=#6c8ebf;strokeWidth=1;fontStyle=1" parent="1" vertex="1">
          <mxGeometry x="-320.99995117187495" y="910" width="120" height="60" as="geometry" />
        </mxCell>
        <mxCell id="QVx0htQHTLcNhm2wryLR-71" value="" style="rounded=0;whiteSpace=wrap;html=1;fontSize=20;fillColor=#000000;strokeColor=default;" parent="1" vertex="1">
          <mxGeometry x="-211" y="935" width="10" height="10" as="geometry" />
        </mxCell>
        <mxCell id="QVx0htQHTLcNhm2wryLR-72" value="" style="rounded=0;whiteSpace=wrap;html=1;fontSize=20;fillColor=#000000;" parent="1" vertex="1">
          <mxGeometry x="-160" y="935" width="10" height="10" as="geometry" />
        </mxCell>
        <mxCell id="QVx0htQHTLcNhm2wryLR-73" value="" style="endArrow=classic;html=1;rounded=0;fontSize=20;" parent="1" source="QVx0htQHTLcNhm2wryLR-72" target="QVx0htQHTLcNhm2wryLR-71" edge="1">
          <mxGeometry width="50" height="50" relative="1" as="geometry">
            <mxPoint x="140" y="1270" as="sourcePoint" />
            <mxPoint x="190" y="1220" as="targetPoint" />
          </mxGeometry>
        </mxCell>
        <mxCell id="QVx0htQHTLcNhm2wryLR-74" value="wbuart32" style="rounded=1;whiteSpace=wrap;html=1;fontSize=20;fillColor=#dae8fc;strokeColor=#6c8ebf;strokeWidth=1;fontStyle=1" parent="1" vertex="1">
          <mxGeometry x="-320.99995117187495" y="990" width="120" height="60" as="geometry" />
        </mxCell>
        <mxCell id="QVx0htQHTLcNhm2wryLR-75" value="" style="rounded=0;whiteSpace=wrap;html=1;fontSize=20;fillColor=#000000;" parent="1" vertex="1">
          <mxGeometry x="-211" y="1015" width="10" height="10" as="geometry" />
        </mxCell>
        <mxCell id="QVx0htQHTLcNhm2wryLR-76" value="" style="rounded=0;whiteSpace=wrap;html=1;fontSize=20;fillColor=#000000;" parent="1" vertex="1">
          <mxGeometry x="-160" y="1015" width="10" height="10" as="geometry" />
        </mxCell>
        <mxCell id="QVx0htQHTLcNhm2wryLR-77" value="" style="endArrow=classic;html=1;rounded=0;fontSize=20;" parent="1" source="QVx0htQHTLcNhm2wryLR-76" target="QVx0htQHTLcNhm2wryLR-75" edge="1">
          <mxGeometry width="50" height="50" relative="1" as="geometry">
            <mxPoint x="140" y="1270" as="sourcePoint" />
            <mxPoint x="190" y="1220" as="targetPoint" />
          </mxGeometry>
        </mxCell>
        <mxCell id="QVx0htQHTLcNhm2wryLR-78" value="USB HID" style="rounded=1;whiteSpace=wrap;html=1;fontSize=20;fillColor=#dae8fc;strokeColor=#6c8ebf;strokeWidth=1;fontStyle=1" parent="1" vertex="1">
          <mxGeometry x="-321" y="1160" width="111" height="50" as="geometry" />
        </mxCell>
        <mxCell id="QVx0htQHTLcNhm2wryLR-79" value="&lt;font style=&quot;font-size: 20px;&quot;&gt;wb_timer&lt;br style=&quot;font-size: 20px;&quot;&gt;&lt;/font&gt;" style="rounded=1;whiteSpace=wrap;html=1;fillColor=#dae8fc;strokeColor=#6c8ebf;strokeWidth=1;fontStyle=1;fontSize=20;" parent="1" vertex="1">
          <mxGeometry x="-320" y="1240" width="119" height="60" as="geometry" />
        </mxCell>
        <mxCell id="QVx0htQHTLcNhm2wryLR-80" value="SPI Flash" style="rounded=1;whiteSpace=wrap;html=1;fontSize=20;align=center;fillColor=#dae8fc;strokeWidth=1;fontStyle=1;strokeColor=#6c8ebf;" parent="1" vertex="1">
          <mxGeometry x="-320" y="1320" width="120" height="60" as="geometry" />
        </mxCell>
        <mxCell id="QVx0htQHTLcNhm2wryLR-81" value="" style="endArrow=classic;html=1;rounded=0;fontSize=20;" parent="1" source="QVx0htQHTLcNhm2wryLR-83" target="QVx0htQHTLcNhm2wryLR-82" edge="1">
          <mxGeometry width="50" height="50" relative="1" as="geometry">
            <mxPoint x="-375" y="1240" as="sourcePoint" />
            <mxPoint x="-350" y="1190" as="targetPoint" />
          </mxGeometry>
        </mxCell>
        <mxCell id="QVx0htQHTLcNhm2wryLR-82" value="" style="rounded=0;whiteSpace=wrap;html=1;fontSize=20;fillColor=#000000;strokeColor=#000000;" parent="1" vertex="1">
          <mxGeometry x="-221" y="1180" width="10" height="10" as="geometry" />
        </mxCell>
        <mxCell id="QVx0htQHTLcNhm2wryLR-83" value="" style="rounded=0;whiteSpace=wrap;html=1;fontSize=20;strokeColor=#000000;fillColor=#000000;" parent="1" vertex="1">
          <mxGeometry x="-160" y="1180" width="10" height="10" as="geometry" />
        </mxCell>
        <mxCell id="QVx0htQHTLcNhm2wryLR-84" value="" style="endArrow=classic;html=1;rounded=0;fontSize=20;" parent="1" source="QVx0htQHTLcNhm2wryLR-85" target="QVx0htQHTLcNhm2wryLR-9" edge="1">
          <mxGeometry width="50" height="50" relative="1" as="geometry">
            <mxPoint x="-375" y="1240" as="sourcePoint" />
            <mxPoint x="-350" y="1190" as="targetPoint" />
          </mxGeometry>
        </mxCell>
        <mxCell id="QVx0htQHTLcNhm2wryLR-85" value="" style="rounded=0;whiteSpace=wrap;html=1;fontSize=20;strokeColor=#000000;fillColor=#000000;" parent="1" vertex="1">
          <mxGeometry x="-160" y="1195" width="10" height="10" as="geometry" />
        </mxCell>
        <mxCell id="QVx0htQHTLcNhm2wryLR-86" value="" style="endArrow=classic;html=1;rounded=0;fontSize=20;" parent="1" source="QVx0htQHTLcNhm2wryLR-88" target="QVx0htQHTLcNhm2wryLR-87" edge="1">
          <mxGeometry width="50" height="50" relative="1" as="geometry">
            <mxPoint x="-375" y="1240" as="sourcePoint" />
            <mxPoint x="-350" y="1190" as="targetPoint" />
          </mxGeometry>
        </mxCell>
        <mxCell id="QVx0htQHTLcNhm2wryLR-87" value="" style="rounded=0;whiteSpace=wrap;html=1;fontSize=20;fillColor=#000000;strokeColor=#000000;" parent="1" vertex="1">
          <mxGeometry x="-210" y="1265" width="10" height="10" as="geometry" />
        </mxCell>
        <mxCell id="QVx0htQHTLcNhm2wryLR-88" value="" style="rounded=0;whiteSpace=wrap;html=1;fontSize=20;strokeColor=#000000;fillColor=#000000;" parent="1" vertex="1">
          <mxGeometry x="-160" y="1265" width="10" height="10" as="geometry" />
        </mxCell>
        <mxCell id="QVx0htQHTLcNhm2wryLR-89" value="" style="endArrow=classic;html=1;rounded=0;fontSize=20;" parent="1" source="QVx0htQHTLcNhm2wryLR-91" target="QVx0htQHTLcNhm2wryLR-90" edge="1">
          <mxGeometry width="50" height="50" relative="1" as="geometry">
            <mxPoint x="-375" y="1240" as="sourcePoint" />
            <mxPoint x="-350" y="1190" as="targetPoint" />
          </mxGeometry>
        </mxCell>
        <mxCell id="QVx0htQHTLcNhm2wryLR-90" value="" style="rounded=0;whiteSpace=wrap;html=1;fontSize=20;fillColor=#000000;strokeColor=#000000;" parent="1" vertex="1">
          <mxGeometry x="-210" y="1345" width="10" height="10" as="geometry" />
        </mxCell>
        <mxCell id="QVx0htQHTLcNhm2wryLR-91" value="" style="rounded=0;whiteSpace=wrap;html=1;fontSize=20;strokeColor=#000000;fillColor=#000000;" parent="1" vertex="1">
          <mxGeometry x="-160" y="1345" width="10" height="10" as="geometry" />
        </mxCell>
        <mxCell id="QVx0htQHTLcNhm2wryLR-98" value="Audio DAC" style="rounded=1;whiteSpace=wrap;html=1;fontColor=#000000;strokeColor=#000000;strokeWidth=1;fillColor=#DAE8FC;fontSize=20;" parent="1" vertex="1">
          <mxGeometry x="-321" y="670" width="80" height="60" as="geometry" />
        </mxCell>
        <mxCell id="QVx0htQHTLcNhm2wryLR-99" value="" style="endArrow=classic;html=1;rounded=0;fontSize=20;" parent="1" source="QVx0htQHTLcNhm2wryLR-66" edge="1">
          <mxGeometry width="50" height="50" relative="1" as="geometry">
            <mxPoint x="-280" y="860" as="sourcePoint" />
            <mxPoint x="-295" y="730" as="targetPoint" />
          </mxGeometry>
        </mxCell>
        <mxCell id="QVx0htQHTLcNhm2wryLR-100" value="" style="endArrow=classic;html=1;rounded=0;fontSize=20;strokeWidth=3;" parent="1" source="QVx0htQHTLcNhm2wryLR-102" target="QVx0htQHTLcNhm2wryLR-101" edge="1">
          <mxGeometry width="50" height="50" relative="1" as="geometry">
            <mxPoint x="-376.2" y="575" as="sourcePoint" />
            <mxPoint x="-351.2" y="525" as="targetPoint" />
          </mxGeometry>
        </mxCell>
        <mxCell id="QVx0htQHTLcNhm2wryLR-101" value="" style="rounded=0;whiteSpace=wrap;html=1;fontSize=20;fillColor=#000000;strokeColor=#000000;" parent="1" vertex="1">
          <mxGeometry x="-1.3999999999999992" y="695" width="10" height="10" as="geometry" />
        </mxCell>
        <mxCell id="QVx0htQHTLcNhm2wryLR-102" value="" style="rounded=0;whiteSpace=wrap;html=1;fontSize=20;strokeColor=#000000;fillColor=#000000;" parent="1" vertex="1">
          <mxGeometry x="-51.2" y="695" width="10" height="10" as="geometry" />
        </mxCell>
        <mxCell id="QVx0htQHTLcNhm2wryLR-104" value="" style="endArrow=classic;html=1;rounded=0;fontSize=20;" parent="1" source="QVx0htQHTLcNhm2wryLR-106" target="QVx0htQHTLcNhm2wryLR-105" edge="1">
          <mxGeometry width="50" height="50" relative="1" as="geometry">
            <mxPoint x="90.8" y="1040" as="sourcePoint" />
            <mxPoint x="-175.2" y="1105" as="targetPoint" />
          </mxGeometry>
        </mxCell>
        <mxCell id="QVx0htQHTLcNhm2wryLR-105" value="" style="rounded=0;whiteSpace=wrap;html=1;fontSize=20;fillColor=#000000;" parent="1" vertex="1">
          <mxGeometry x="130" y="1060" width="10" height="10" as="geometry" />
        </mxCell>
        <mxCell id="QVx0htQHTLcNhm2wryLR-106" value="" style="rounded=0;whiteSpace=wrap;html=1;fontSize=20;fillColor=#000000;" parent="1" vertex="1">
          <mxGeometry x="131.9" y="850" width="10" height="10" as="geometry" />
        </mxCell>
        <mxCell id="QVx0htQHTLcNhm2wryLR-107" value="" style="endArrow=classic;html=1;rounded=0;fontSize=20;strokeColor=default;jumpStyle=arc;exitX=1;exitY=0.5;exitDx=0;exitDy=0;entryX=0.5;entryY=0;entryDx=0;entryDy=0;edgeStyle=orthogonalEdgeStyle;jumpSize=11;" parent="1" source="QVx0htQHTLcNhm2wryLR-62" target="QVx0htQHTLcNhm2wryLR-61" edge="1">
          <mxGeometry width="50" height="50" relative="1" as="geometry">
            <mxPoint x="220" y="890" as="sourcePoint" />
            <mxPoint x="270" y="840" as="targetPoint" />
          </mxGeometry>
        </mxCell>
        <mxCell id="QVx0htQHTLcNhm2wryLR-108" value="wb_gpio" style="rounded=1;whiteSpace=wrap;html=1;fontSize=20;fillColor=#dae8fc;strokeColor=#6c8ebf;strokeWidth=1;fontStyle=1" parent="1" vertex="1">
          <mxGeometry x="-321" y="1080" width="120" height="60" as="geometry" />
        </mxCell>
        <mxCell id="QVx0htQHTLcNhm2wryLR-109" value="" style="rounded=0;whiteSpace=wrap;html=1;fontSize=20;fillColor=#000000;" parent="1" vertex="1">
          <mxGeometry x="-211" y="1105" width="10" height="10" as="geometry" />
        </mxCell>
        <mxCell id="QVx0htQHTLcNhm2wryLR-110" value="" style="rounded=0;whiteSpace=wrap;html=1;fontSize=20;fillColor=#000000;" parent="1" vertex="1">
          <mxGeometry x="-160" y="1105" width="10" height="10" as="geometry" />
        </mxCell>
        <mxCell id="QVx0htQHTLcNhm2wryLR-111" value="" style="endArrow=classic;html=1;rounded=0;fontSize=20;" parent="1" source="QVx0htQHTLcNhm2wryLR-110" target="QVx0htQHTLcNhm2wryLR-109" edge="1">
          <mxGeometry width="50" height="50" relative="1" as="geometry">
            <mxPoint x="150" y="1310" as="sourcePoint" />
            <mxPoint x="200" y="1260" as="targetPoint" />
          </mxGeometry>
        </mxCell>
        <mxCell id="QVx0htQHTLcNhm2wryLR-112" value="reset_ctrl" style="rounded=1;whiteSpace=wrap;html=1;fillColor=#dae8fc;strokeColor=#6c8ebf;strokeWidth=1;fontStyle=1;fontSize=20;" parent="1" vertex="1">
          <mxGeometry x="-320" y="1400" width="119" height="60" as="geometry" />
        </mxCell>
        <mxCell id="QVx0htQHTLcNhm2wryLR-113" value="" style="endArrow=classic;html=1;rounded=0;fontSize=20;" parent="1" source="QVx0htQHTLcNhm2wryLR-115" target="QVx0htQHTLcNhm2wryLR-114" edge="1">
          <mxGeometry width="50" height="50" relative="1" as="geometry">
            <mxPoint x="-375" y="1400" as="sourcePoint" />
            <mxPoint x="-350" y="1350" as="targetPoint" />
          </mxGeometry>
        </mxCell>
        <mxCell id="QVx0htQHTLcNhm2wryLR-114" value="" style="rounded=0;whiteSpace=wrap;html=1;fontSize=20;fillColor=#000000;strokeColor=#000000;" parent="1" vertex="1">
          <mxGeometry x="-210" y="1425" width="10" height="10" as="geometry" />
        </mxCell>
        <mxCell id="QVx0htQHTLcNhm2wryLR-115" value="" style="rounded=0;whiteSpace=wrap;html=1;fontSize=20;strokeColor=#000000;fillColor=#000000;" parent="1" vertex="1">
          <mxGeometry x="-160" y="1425" width="10" height="10" as="geometry" />
        </mxCell>
        <mxCell id="QVx0htQHTLcNhm2wryLR-121" value="" style="rounded=1;whiteSpace=wrap;html=1;fontSize=20;strokeWidth=3;fontStyle=1;fillColor=#000000;fillStyle=hatch;" parent="1" vertex="1">
          <mxGeometry x="-0.19999999999998863" y="1195" width="120" height="70" as="geometry" />
        </mxCell>
        <mxCell id="QVx0htQHTLcNhm2wryLR-122" value="" style="endArrow=block;html=1;rounded=0;exitX=0.543;exitY=0.035;exitDx=0;exitDy=0;exitPerimeter=0;strokeWidth=3;dashed=1;startArrow=none;startFill=0;endFill=0;endSize=18;" parent="1" source="QVx0htQHTLcNhm2wryLR-18" target="QVx0htQHTLcNhm2wryLR-121" edge="1">
          <mxGeometry width="50" height="50" relative="1" as="geometry">
            <mxPoint x="-23.86000000000044" y="1500" as="sourcePoint" />
            <mxPoint x="45.79999999999987" y="1195.88" as="targetPoint" />
          </mxGeometry>
        </mxCell>
        <mxCell id="QVx0htQHTLcNhm2wryLR-126" value="" style="endArrow=block;html=1;rounded=0;strokeWidth=3;dashed=1;startArrow=none;startFill=0;endFill=0;entryX=0.652;entryY=0.983;entryDx=0;entryDy=0;entryPerimeter=0;exitX=0.539;exitY=0.035;exitDx=0;exitDy=0;exitPerimeter=0;endSize=18;" parent="1" source="QVx0htQHTLcNhm2wryLR-120" target="QVx0htQHTLcNhm2wryLR-121" edge="1">
          <mxGeometry width="50" height="50" relative="1" as="geometry">
            <mxPoint x="130" y="1490" as="sourcePoint" />
            <mxPoint x="60" y="1270" as="targetPoint" />
          </mxGeometry>
        </mxCell>
        <mxCell id="QVx0htQHTLcNhm2wryLR-18" value="RM&lt;div&gt;&lt;span style=&quot;background-color: initial;&quot;&gt;vs0_stub&lt;/span&gt;&lt;/div&gt;" style="rounded=1;whiteSpace=wrap;html=1;fontSize=20;strokeWidth=3;fontStyle=1;fillColor=#FFFF88;" parent="1" vertex="1">
          <mxGeometry x="-90" y="1355" width="120" height="70" as="geometry" />
        </mxCell>
        <mxCell id="QVx0htQHTLcNhm2wryLR-120" value="RM&lt;div&gt;vs0_j1b&lt;/div&gt;" style="rounded=1;whiteSpace=wrap;html=1;fontSize=20;strokeWidth=3;fontStyle=1;fillColor=#FFFF88;" parent="1" vertex="1">
          <mxGeometry x="64.2" y="1355" width="120" height="70" as="geometry" />
        </mxCell>
        <mxCell id="s4gdXTpUjoNYCUi0dSki-1" value="" style="rounded=0;whiteSpace=wrap;html=1;fillColor=none;strokeColor=none;" vertex="1" parent="1">
          <mxGeometry x="-520" y="1000" width="1190" height="60" as="geometry" />
        </mxCell>
      </root>
    </mxGraphModel>
  </diagram>
</mxfile>
